<?xml version="1.0" encoding="UTF-8" standalone="no"?>
<!-- Created with Inkscape (http://www.inkscape.org/) -->

<svg
   xmlns:dc="http://purl.org/dc/elements/1.1/"
   xmlns:cc="http://creativecommons.org/ns#"
   xmlns:rdf="http://www.w3.org/1999/02/22-rdf-syntax-ns#"
   xmlns:svg="http://www.w3.org/2000/svg"
   xmlns="http://www.w3.org/2000/svg"
   xmlns:sodipodi="http://sodipodi.sourceforge.net/DTD/sodipodi-0.dtd"
   xmlns:inkscape="http://www.inkscape.org/namespaces/inkscape"
   inkscape:version="0.92.3 (2405546, 2018-03-11)"
   version="1.1"
   id="svg2"
   viewBox="0 0 399.55807 280.69184"
   height="30px"
   width="30px"
   sodipodi:docname="Flugzeug.svg">
  <sodipodi:namedview
     inkscape:window-maximized="1"
     inkscape:window-y="9"
     inkscape:window-x="-4"
     inkscape:window-height="1017"
     inkscape:window-width="1920"
     borderlayer="true"
     showgrid="false"
     inkscape:current-layer="layer1"
     inkscape:document-units="px"
     inkscape:cy="92.54365"
     inkscape:cx="318.57527"
     inkscape:zoom="0.73239653"
     inkscape:pageshadow="2"
     inkscape:pageopacity="0.0"
     borderopacity="1.0"
     bordercolor="#666666"
     pagecolor="#ffffff"
     id="base"
     showguides="true"
     fit-margin-top="0"
     fit-margin-left="0"
     fit-margin-right="0"
     fit-margin-bottom="0"
     showborder="false" />
  <defs
     id="defs4" />
  <metadata
     id="metadata7">
    <rdf:RDF>
      <cc:Work
         rdf:about="">
        <dc:format>image/svg+xml</dc:format>
        <dc:type
           rdf:resource="http://purl.org/dc/dcmitype/StillImage" />
        <dc:title></dc:title>
      </cc:Work>
    </rdf:RDF>
  </metadata>
  <g
     transform="translate(-283.11071,-536.49718)"
     id="layer1"
     inkscape:groupmode="layer"
     inkscape:label="Ebene 1">
    <g
       id="g4583"
       transform="rotate(20.824139,779.86914,327.44345)">
      <path
         inkscape:connector-curvature="0"
         id="path4435"
         d="m 422.8421,693.46502 c 3.34854,-4.2256 9.44849,-4.59011 14.08764,-2.51962 21.59724,5.09813 42.6891,13.14927 61.27951,25.39746 2.54559,-5.16941 6.67492,-9.47734 9.90821,-14.27448 27.40074,-35.9306 63.32163,-65.08082 103.21821,-86.09845 28.11005,-13.75451 61.24842,-20.487 91.86841,-11.63147 5.1765,1.63062 10.18018,3.8386 14.81043,6.67624 7.33259,-9.13014 13.54428,-19.84097 23.5083,-26.34688 10.66959,-1.73299 22.98375,-3.24229 32.41201,3.21353 3.56843,3.20887 3.57864,8.68196 1.45586,12.67138 -1.13294,4.48487 -2.68948,8.90648 -3.65282,13.35274 14.08936,3.52038 22.79323,18.85221 21.26913,32.795 13.44066,16.13954 17.26193,38.40839 14.59957,58.83238 -5.97853,43.73474 -34.2464,82.60003 -71.18132,105.87785 -18.71991,12.08599 -40.04041,19.58452 -61.89008,23.53345 -19.25733,4.22227 -38.73836,7.47727 -58.35976,9.43327 -1.50669,1.36129 -3.01228,2.56769 0.0227,2.20882 11.88233,0.70992 22.71247,9.76897 24.78248,21.6202 5.13512,22.44481 -13.53559,47.53214 -36.79134,47.90379 -9.54463,-0.60475 -18.29906,-5.34508 -26.33849,-10.15981 -3.44387,-1.90537 -5.8187,-5.72002 -9.36166,-7.0687 -3.70989,-0.65102 -7.69692,-1.61553 -10.37441,-4.46232 -20.70641,16.32545 -42.30718,31.49305 -64.4314,45.82974 -9.87232,-0.60257 -15.56313,-10.23381 -18.88061,-18.45955 -3.63775,-5.3434 -2.33785,-12.61937 1.72982,-17.32281 13.35921,-23.20556 29.22373,-44.8242 44.76791,-66.58555 -6.65174,-2.26596 -13.12554,-5.14174 -19.06499,-8.91631 -9.22945,6.01187 -18.75041,13.36341 -29.94721,14.65854 -7.77291,-1.89961 -10.86171,-12.92671 -5.0869,-18.51929 4.1714,-6.77271 9.00433,-13.10377 13.82843,-19.41786 -3.09879,-6.65336 -4.33182,-13.99777 -4.94408,-21.26049 -22.16153,-18.84039 -41.2845,-41.01549 -58.89357,-64.0781 -3.50263,-4.82035 -4.35835,-11.42178 -1.18689,-16.65016 1.77221,-3.72187 4.3634,-6.96453 6.83693,-10.23254 z"
         style="opacity:1;fill:#6a2a00;fill-opacity:1;stroke:none;stroke-width:0;stroke-linecap:square;stroke-linejoin:miter;stroke-miterlimit:4;stroke-dasharray:none;stroke-opacity:1" />
      <g
         id="g4350"
         transform="matrix(-0.43058725,0.48873556,0.51328018,0.46004673,634.3631,-72.840649)">
        <path
           sodipodi:nodetypes="ccccccccc"
           inkscape:connector-curvature="0"
           id="path4352"
           d="m 733.48871,779.56747 c -4.71242,-0.13928 -8.93052,1.41105 -11.77082,4.04406 l -17.36259,10.65569 c -3.52267,2.71859 -5.74089,6.57567 -5.89808,10.9891 -0.33086,9.31546 8.6091,17.67641 19.96844,18.67515 6.88237,0.60504 13.07383,-1.6313 16.9591,-5.55978 l 11.67619,-16.66497 c 1.97597,-2.02383 3.15654,-4.59014 3.25896,-7.4029 -2.05296,-9.23305 -9.61926,-14.36217 -16.8312,-14.73635 z"
           style="opacity:1;fill:#d45500;fill-opacity:1;stroke:none;stroke-width:0;stroke-linecap:square;stroke-linejoin:miter;stroke-miterlimit:4;stroke-dasharray:none;stroke-opacity:1" />
        <path
           sodipodi:nodetypes="ccccccc"
           inkscape:connector-curvature="0"
           id="path4356"
           transform="translate(0,308.26772)"
           d="m 705.29102,478.66211 c -12.3675,1.46725 -29.31476,5.93028 -39.38152,11.47951 -10.42017,5.84818 -17.08339,15.58275 -17.48567,26.82518 -0.71302,20.07041 18.54935,38.08407 43.02344,40.23437 13.07342,1.13539 25.12783,-2.50554 33.55316,-9.334 7.37805,-7.6273 16.82544,-31.05349 17.29871,-40.13292 0.40337,-19.25659 -20.85373,-28.36761 -37.00812,-29.07214 z"
           style="opacity:1;fill:#d45500;fill-opacity:1;stroke:none;stroke-width:0;stroke-linecap:square;stroke-linejoin:miter;stroke-miterlimit:4;stroke-dasharray:none;stroke-opacity:1" />
        <ellipse
           style="opacity:0.5;fill:#000000;fill-opacity:1;stroke:none;stroke-width:0;stroke-linecap:square;stroke-linejoin:miter;stroke-miterlimit:4;stroke-dasharray:none;stroke-opacity:1"
           id="ellipse4358"
           cx="717.1864"
           cy="766.79895"
           rx="35.693806"
           ry="29.177429"
           transform="matrix(0.99616212,0.08752732,-0.03548867,0.99937008,0,0)" />
        <path
           sodipodi:nodetypes="ssss"
           inkscape:connector-curvature="0"
           id="path4360"
           d="m 684.04247,804.99309 c 11.49953,-4.6399 37.02956,16.42179 32.4896,26.79826 -3.33744,7.628 -30.2775,11.29861 -36.34242,7.09491 -5.24063,-3.63238 -3.21143,-31.04286 3.85282,-33.89317 z"
           style="opacity:1;fill:#d45500;fill-opacity:1;stroke:none;stroke-width:0;stroke-linecap:square;stroke-linejoin:miter;stroke-miterlimit:4;stroke-dasharray:none;stroke-opacity:1" />
      </g>
      <path
         style="opacity:1;fill:#d45500;fill-opacity:1;stroke:none;stroke-width:0;stroke-linecap:square;stroke-linejoin:miter;stroke-miterlimit:4;stroke-dasharray:none;stroke-opacity:1"
         d="m 771.31507,593.68076 c -3.55782,-7.64437 -28.02342,-3.85158 -28.02342,-3.85158 -7.94078,4.26714 -58.0226,75.0551 -61.17574,82.50888 l 56.7481,22.01002 c 11.88492,-30.32019 23.52891,-65.78037 32.45106,-100.66732 z"
         id="path4348"
         inkscape:connector-curvature="0"
         sodipodi:nodetypes="ccccc" />
      <path
         sodipodi:nodetypes="cccc"
         inkscape:connector-curvature="0"
         id="path4364"
         d="m 771.31507,593.68076 c -21.89718,45.05091 -25.40578,60.18402 -25.40578,60.18402 l -2.16174,27.69656 c 10.15274,-27.27639 19.87245,-57.79169 27.56752,-87.88058 z"
         style="opacity:0.5;fill:#000000;fill-opacity:1;stroke:none;stroke-width:0;stroke-linecap:square;stroke-linejoin:miter;stroke-miterlimit:4;stroke-dasharray:none;stroke-opacity:1" />
      <g
         transform="matrix(-0.52054182,0.47137869,0.47137869,0.52054182,578.32064,123.34849)"
         id="g4334">
        <path
           style="opacity:1;fill:#d45500;fill-opacity:1;stroke:none;stroke-width:0;stroke-linecap:square;stroke-linejoin:miter;stroke-miterlimit:4;stroke-dasharray:none;stroke-opacity:1"
           d="m 733.48871,779.56747 c -4.71242,-0.13928 -8.93052,1.41105 -11.77082,4.04406 l -17.36259,10.65569 c -3.52267,2.71859 -5.74089,6.57567 -5.89808,10.9891 -0.33086,9.31546 8.6091,17.67641 19.96844,18.67515 6.88237,0.60504 13.07383,-1.6313 16.9591,-5.55978 l 11.67619,-16.66497 c 1.97597,-2.02383 3.15654,-4.59014 3.25896,-7.4029 -2.05296,-9.23305 -9.61926,-14.36217 -16.8312,-14.73635 z"
           id="ellipse4320"
           inkscape:connector-curvature="0"
           sodipodi:nodetypes="ccccccccc" />
        <path
           sodipodi:nodetypes="cccccccc"
           inkscape:connector-curvature="0"
           id="path4332"
           d="m 726.12394,814.0367 c -3.52267,2.71859 -27.50953,-13.19381 -27.66672,-8.78038 -0.33086,9.31546 8.6091,17.67641 19.96844,18.67515 6.88237,0.60504 13.07383,-1.6313 16.9591,-5.55978 l 11.67619,-16.66497 c 1.97597,-2.02383 3.15654,-4.59014 3.25896,-7.4029 -0.55406,-2.49187 -1.50971,-4.68481 -2.75159,-6.56604 -9.11429,12.3386 -9.46072,12.98699 -21.44438,26.29892 z"
           style="opacity:0.5;fill:#000000;fill-opacity:1;stroke:none;stroke-width:0;stroke-linecap:square;stroke-linejoin:miter;stroke-miterlimit:4;stroke-dasharray:none;stroke-opacity:1" />
        <path
           style="opacity:1;fill:#d45500;fill-opacity:1;stroke:none;stroke-width:0;stroke-linecap:square;stroke-linejoin:miter;stroke-miterlimit:4;stroke-dasharray:none;stroke-opacity:1"
           d="m 705.29102,478.66211 c -12.3675,1.46725 -29.31476,5.93028 -39.38152,11.47951 -10.42017,5.84818 -17.08339,15.58275 -17.48567,26.82518 -0.71302,20.07041 18.54935,38.08407 43.02344,40.23437 13.07342,1.13539 25.12783,-2.50554 33.55316,-9.334 7.37805,-7.6273 16.82544,-31.05349 17.29871,-40.13292 0.40337,-19.25659 -20.85373,-28.36761 -37.00812,-29.07214 z"
           transform="translate(0,308.26772)"
           id="ellipse4318"
           inkscape:connector-curvature="0"
           sodipodi:nodetypes="ccccccc" />
        <ellipse
           transform="matrix(0.99616212,0.08752732,-0.03548867,0.99937008,0,0)"
           ry="29.177429"
           rx="35.693806"
           cy="766.79895"
           cx="717.1864"
           id="ellipse4316"
           style="opacity:0.5;fill:#000000;fill-opacity:1;stroke:none;stroke-width:0;stroke-linecap:square;stroke-linejoin:miter;stroke-miterlimit:4;stroke-dasharray:none;stroke-opacity:1" />
        <path
           style="opacity:1;fill:#d45500;fill-opacity:1;stroke:none;stroke-width:0;stroke-linecap:square;stroke-linejoin:miter;stroke-miterlimit:4;stroke-dasharray:none;stroke-opacity:1"
           d="m 684.04247,804.99309 c 11.49953,-4.6399 37.02956,16.42179 32.4896,26.79826 -3.33744,7.628 -30.2775,11.29861 -36.34242,7.09491 -5.24063,-3.63238 -3.21143,-31.04286 3.85282,-33.89317 z"
           id="rect4327"
           inkscape:connector-curvature="0"
           sodipodi:nodetypes="ssss" />
        <path
           sodipodi:nodetypes="ccccc"
           inkscape:connector-curvature="0"
           id="path4330"
           transform="translate(0,308.26772)"
           d="m 725.00043,547.86717 c 7.37805,-7.6273 16.82544,-31.05349 17.29871,-40.13292 0.0652,-3.11196 -0.43531,-5.95896 -1.38855,-8.54833 -4.78848,20.77694 -11.29586,30.7552 -13.81284,35.27214 z"
           style="opacity:0.5;fill:#000000;fill-opacity:1;stroke:none;stroke-width:0;stroke-linecap:square;stroke-linejoin:miter;stroke-miterlimit:4;stroke-dasharray:none;stroke-opacity:1" />
      </g>
      <path
         style="opacity:1;fill:#d45500;fill-opacity:1;stroke:none;stroke-width:0;stroke-linecap:square;stroke-linejoin:miter;stroke-miterlimit:4;stroke-dasharray:none;stroke-opacity:1"
         d="m 429.11143,695.29445 c 0,0 -9.65833,9.07067 -9.65839,17.31608 2.25398,8.78477 54.21299,66.48883 64.74143,70.47312 8.3215,-20.861 29.77432,-42.04467 17.5941,-56.84972 -16.36002,-15.81152 -62.34552,-30.68885 -72.67714,-30.93948 z"
         id="rect4211"
         inkscape:connector-curvature="0"
         sodipodi:nodetypes="ccccc" />
      <path
         inkscape:connector-curvature="0"
         id="path4520"
         d="m 432.13485,716.39209 39.98308,34.99082 -8.2433,14.24364 c -13.14884,-13.26447 -28.89896,-31.02404 -37.68705,-42.52928 z"
         style="opacity:0.5;fill:#000000;fill-opacity:1;stroke:none;stroke-width:0;stroke-linecap:square;stroke-linejoin:miter;stroke-miterlimit:4;stroke-dasharray:none;stroke-opacity:1" />
      <path
         sodipodi:nodetypes="ccccc"
         inkscape:connector-curvature="0"
         id="path4292"
         d="m 429.11143,695.29445 c 25.77986,8.7959 54.81422,26.43436 63.9841,31.4913 -2.4129,17.23082 -4.13961,32.14748 -8.90106,56.2979 8.3215,-20.861 29.77432,-42.04467 17.5941,-56.84972 -16.36002,-15.81152 -62.34552,-30.68885 -72.67714,-30.93948 z"
         style="opacity:0.5;fill:#000000;fill-opacity:1;stroke:none;stroke-width:0;stroke-linecap:square;stroke-linejoin:miter;stroke-miterlimit:4;stroke-dasharray:none;stroke-opacity:1" />
      <path
         style="opacity:1;fill:#d45500;fill-opacity:1;stroke:none;stroke-width:0;stroke-linecap:square;stroke-linejoin:miter;stroke-miterlimit:4;stroke-dasharray:none;stroke-opacity:1"
         d="m 630.38878,613.87737 c 36.66365,-12.70755 73.45611,-9.86173 91.55978,7.082 37.53672,2.81366 64.9056,18.74448 75.54904,43.9754 21.06694,50.21129 -22.33142,140.09272 -110.81672,161.46842 -107.0349,25.85679 -193.15632,17.13796 -203.61634,-32.43361 -14.51077,-68.76854 86.18788,-157.72621 147.32424,-180.09221 z"
         id="path4186"
         inkscape:connector-curvature="0"
         sodipodi:nodetypes="cccssc" />
      <path
         sodipodi:nodetypes="cscc"
         inkscape:connector-curvature="0"
         id="path4342"
         d="m 789.11297,745.82181 c -17.99326,35.6415 -53.2407,68.69806 -102.43209,80.58138 -93.66702,22.62746 -171.31823,18.77647 -196.26331,-15.75968 36.57601,14.94312 232.93913,-5.20969 298.6954,-64.8217 z"
         style="opacity:0.5;fill:#000000;fill-opacity:1;stroke:none;stroke-width:0;stroke-linecap:square;stroke-linejoin:miter;stroke-miterlimit:4;stroke-dasharray:none;stroke-opacity:1" />
      <path
         inkscape:connector-curvature="0"
         id="path4303"
         d="m 679.68074,606.13518 c 1.15198,0.0506 2.31855,0.0766 3.44833,0.164 2.0055,0.15513 3.97445,0.36817 5.90287,0.63877 1.9284,0.2706 3.81631,0.59821 5.65844,0.98356 1.84213,0.38538 3.6391,0.82832 5.38575,1.32773 1.74666,0.49942 3.44221,1.05559 5.08421,1.66832 1.64199,0.61276 3.22921,1.28235 4.75735,2.0077 1.52815,0.72537 2.99741,1.50727 4.40253,2.34456 1.40511,0.83728 2.74674,1.73039 4.01962,2.67887 1.2729,0.94848 2.47723,1.95172 3.60872,3.01068 0.44448,0.0333 0.84544,0.12091 1.28706,0.15787 -2.19315,8.0789 -9.72961,13.53451 -15.38726,19.26078 -26.72176,23.51724 -58.04166,42.05945 -91.72545,53.55875 -3.87404,1.63547 -8.49119,1.8668 -11.63707,-1.34444 -4.1579,-4.08635 -7.05001,-9.53201 -8.90576,-14.99176 -0.15079,-3.70624 4.97261,-3.23794 6.89712,-5.28517 24.99434,-14.02567 47.28336,-32.38146 67.49874,-52.62906 3.9143,-3.97952 7.22511,-8.58467 9.7048,-13.55116 z"
         style="opacity:0.5;fill:#000000;fill-opacity:1;stroke:none;stroke-width:0;stroke-linecap:square;stroke-linejoin:miter;stroke-miterlimit:4;stroke-dasharray:none;stroke-opacity:1" />
      <path
         style="opacity:1;fill:#2c89a0;fill-opacity:1;stroke:none;stroke-width:0;stroke-linecap:square;stroke-linejoin:miter;stroke-miterlimit:4;stroke-dasharray:none;stroke-opacity:1"
         d="m 598.41617,677.57173 c 24.76268,-11.11958 79.43514,-55.23647 84.35115,-71.29527 15.53372,1.14559 28.90942,5.75655 38.02382,13.65962 -0.71774,11.16104 -56.26095,56.77068 -109.10919,72.40199 -6.65205,1.96752 -13.26578,-14.76634 -13.26578,-14.76634 z"
         id="rect4201"
         inkscape:connector-curvature="0"
         sodipodi:nodetypes="sccss" />
      <path
         inkscape:connector-curvature="0"
         style="opacity:1;fill:#d40000;fill-opacity:1;stroke:none;stroke-width:0;stroke-linecap:square;stroke-linejoin:miter;stroke-miterlimit:4;stroke-dasharray:none;stroke-opacity:1"
         d="m 766.09989,655.77902 a 32.340779,28.315778 87.986939 0 1 23.41545,-4.37183 c 3.24924,4.14636 5.92984,8.66222 7.98226,13.52758 5.00543,11.93008 6.36493,26.10187 4.35183,41.05994 a 32.340779,28.315778 87.986939 0 1 -3.56055,3.33965 32.340779,28.315778 87.986939 0 1 -39.3974,-8.6501 32.340779,28.315778 87.986939 0 1 7.20842,-44.90531 z"
         id="path4203" />
      <path
         sodipodi:nodetypes="ccccc"
         inkscape:connector-curvature="0"
         id="path4214"
         d="m 492.38212,934.39241 c -8.37853,-0.94559 -14.41524,-20.04863 -14.41524,-20.04863 1.52402,-8.88488 54.60209,-84.15725 60.66823,-89.51468 12.89213,-7.35752 75.26275,-24.815 96.96845,-11.18808 -18.09171,26.91518 -79.95441,79.87763 -143.22144,120.75139 z"
         style="opacity:1;fill:#d45500;fill-opacity:1;stroke:none;stroke-width:0;stroke-linecap:square;stroke-linejoin:miter;stroke-miterlimit:4;stroke-dasharray:none;stroke-opacity:1" />
      <path
         inkscape:connector-curvature="0"
         id="path4527"
         d="m 524.45168,843.06896 13.68102,0.0575 -40.8564,50.62396 -5.8398,-2.94093 c 9.79697,-15.06088 22.95896,-33.94377 33.01518,-47.74049 z"
         style="opacity:0.5;fill:#000000;fill-opacity:1;stroke:none;stroke-width:0;stroke-linecap:square;stroke-linejoin:miter;stroke-miterlimit:4;stroke-dasharray:none;stroke-opacity:1" />
      <path
         inkscape:connector-curvature="0"
         id="path4295"
         d="m 531.20758,746.60653 c 3.68223,-2.54969 8.50446,-0.50963 11.20794,2.51065 -2.69647,-3.63008 -1.6651,-10.56567 3.67305,-10.88188 7.26694,-0.40763 11.08795,7.09606 15.11672,11.81123 2.97768,3.77033 7.81477,8.61346 5.80877,13.82291 -2.94972,4.48004 -9.28137,2.46076 -12.75542,-0.23993 -1.57262,-1.0836 -3.05349,-2.54374 -4.25247,-3.88966 2.12563,3.70367 -0.93934,8.30351 -5.128,8.04647 -6.13709,0.22173 -10.73887,-4.61423 -13.66157,-9.46251 -2.79337,-3.34777 -4.0787,-8.7976 -0.009,-11.71724 z m 26.34267,-19.50085 c 6.97346,-4.05775 15.06485,1.74644 18.72233,7.72754 4.22369,6.09351 11.9207,11.44997 11.84886,19.68448 -0.92026,5.79399 -8.03721,7.54494 -12.84386,5.53718 -8.71384,-2.78673 -13.09319,-11.54244 -18.51881,-18.15737 -3.12615,-4.38222 -4.19925,-11.29246 0.79148,-14.79183 z m 18.64172,-13.82153 c 6.92671,-4.15021 15.13437,1.19101 19.46224,6.74192 5.54802,7.7254 13.99653,13.96236 16.79037,23.36306 0.98811,5.04331 -3.44525,10.15653 -8.66907,9.31353 -9.89977,-0.24514 -16.62678,-8.65682 -21.90169,-16.03683 -4.69194,-5.34431 -11.04955,-12.20998 -8.34895,-19.94116 0.55112,-1.36233 1.47357,-2.57854 2.66686,-3.4407 z"
         style="opacity:0.5;fill:#000000;fill-opacity:1;stroke:none;stroke-width:0;stroke-linecap:square;stroke-linejoin:miter;stroke-miterlimit:4;stroke-dasharray:none;stroke-opacity:1" />
      <path
         inkscape:connector-curvature="0"
         d="m 577.51749,715.81488 c 0.1978,-0.17147 0.41177,-0.32947 0.64149,-0.47293 3.67556,-2.29538 10.48058,0.5142 15.25797,6.29883 l 12.63702,15.29883 c 4.77741,5.78462 4.85472,11.45615 0.17372,12.71517 -4.681,1.259 -11.82867,-1.9035 -16.02578,-7.09001 l -11.10094,-13.7186 c -3.93478,-4.86235 -4.55053,-10.45921 -1.58348,-13.03129 z m -18.69066,13.83761 c 0.18295,-0.14943 0.37809,-0.28967 0.58676,-0.4165 3.33662,-2.03175 9.13526,0.24267 13.00101,5.09866 l 10.22358,12.84409 c 3.86572,4.85601 3.49358,9.55912 -0.83613,10.54486 -4.32969,0.98576 -10.46588,-1.64379 -13.7585,-5.89606 l -8.70977,-11.24832 c -3.08685,-3.9865 -3.24806,-8.68129 -0.50696,-10.92675 z m -13.87711,11.83165 c 0.1193,-0.0902 0.24868,-0.17128 0.38655,-0.24331 2.206,-1.15225 6.38747,1.06034 9.37563,4.96117 l 7.90375,10.3183 c 2.98819,3.90084 2.8514,7.10108 -0.30644,7.17526 -3.15783,0.0742 -7.66284,-2.50617 -10.10168,-5.78481 l -6.45093,-8.67163 c -2.2864,-3.07371 -2.59504,-6.40165 -0.80688,-7.75498 z m -12.36288,7.59931 c 0.2147,-0.18542 0.4563,-0.34871 0.72449,-0.48713 2.14662,-1.10609 5.59276,0.36045 7.72653,3.28813 l 5.64402,7.744 c 2.13377,2.92769 1.35898,5.30618 -1.73734,5.3325 -3.09629,0.0263 -6.86599,-1.808 -8.45166,-4.1125 l -4.19375,-6.0953 c -1.38747,-2.01644 -1.21515,-4.37169 0.28769,-5.66973 z"
         style="opacity:1;fill:#2c89a0;fill-opacity:1;stroke:none;stroke-width:0;stroke-linecap:square;stroke-linejoin:miter;stroke-miterlimit:4;stroke-dasharray:none;stroke-opacity:1"
         id="path4269" />
      <path
         style="opacity:1;fill:#d45500;fill-opacity:1;stroke:none;stroke-width:0;stroke-linecap:square;stroke-linejoin:miter;stroke-miterlimit:4;stroke-dasharray:none;stroke-opacity:1"
         d="m 473.51282,838.17087 c -2.44556,-0.21233 -4.07353,-5.68933 -4.07353,-5.68933 0.51071,-2.57892 16.59433,-24.71934 18.40886,-26.31182 3.82707,-2.22015 19.03706,2.14281 25.29123,5.9232 -5.49127,7.9103 -29.51195,23.53074 -39.62656,26.07795 z"
         id="path4284"
         inkscape:connector-curvature="0"
         sodipodi:nodetypes="ccccc" />
      <path
         style="opacity:0.5;fill:#000000;fill-opacity:1;stroke:none;stroke-width:0;stroke-linecap:square;stroke-linejoin:miter;stroke-miterlimit:4;stroke-dasharray:none;stroke-opacity:1"
         d="m 492.38212,934.39241 c 96.10482,-73.84098 131.66385,-117.41352 131.66385,-117.41352 -14.24141,-11.40913 -65.33884,-0.71659 -85.41086,7.85021 12.89213,-7.35752 75.26275,-24.815 96.96845,-11.18808 -18.09171,26.91518 -79.95441,79.87763 -143.22144,120.75139 z"
         id="path4288"
         inkscape:connector-curvature="0"
         sodipodi:nodetypes="ccccc" />
      <path
         sodipodi:nodetypes="ccccc"
         inkscape:connector-curvature="0"
         id="path4290"
         d="m 473.51282,838.17087 c 33.3159,-18.844 35.47859,-25.46844 35.47859,-25.46844 -2.85609,-3.20216 -16.98499,-6.52423 -21.14326,-6.53271 3.82707,-2.22015 19.03706,2.14281 25.29123,5.9232 -5.49127,7.9103 -29.51195,23.53074 -39.62656,26.07795 z"
         style="opacity:0.5;fill:#000000;fill-opacity:1;stroke:none;stroke-width:0;stroke-linecap:square;stroke-linejoin:miter;stroke-miterlimit:4;stroke-dasharray:none;stroke-opacity:1" />
    </g>
  </g>
</svg>
