<?xml version="1.0" encoding="UTF-8" standalone="no"?>
<svg
   xmlns:dc="http://purl.org/dc/elements/1.1/"
   xmlns:cc="http://creativecommons.org/ns#"
   xmlns:rdf="http://www.w3.org/1999/02/22-rdf-syntax-ns#"
   xmlns:svg="http://www.w3.org/2000/svg"
   xmlns="http://www.w3.org/2000/svg"
   version="1.1"
   id="svg24678"
   viewBox="0 0 642.91462 607.40688"
   height="30px"
   width="30px">
  <defs
     id="defs24680" />
  <metadata
     id="metadata24683">
    <rdf:RDF>
      <cc:Work
         rdf:about="">
        <dc:format>image/svg+xml</dc:format>
        <dc:type
           rdf:resource="http://purl.org/dc/dcmitype/StillImage" />
        <dc:title></dc:title>
      </cc:Work>
    </rdf:RDF>
  </metadata>
  <g
     transform="translate(-441.58529,-576.03678)"
     id="layer1">
    <g
       transform="matrix(1.0600603,0,0,1.0429248,-65.121786,-50.812375)"
       id="g25504">
      <path
         style="fill:#444141;fill-opacity:1;fill-rule:evenodd;stroke:#000000;stroke-width:3;stroke-linecap:round;stroke-linejoin:round;stroke-miterlimit:4;stroke-dasharray:none;stroke-opacity:1"
         d="m 686.03903,1139.8383 -63.98712,-74.5167 -87.47605,-127.9742 -55.07751,-59.12733 0.80996,-39.68821 180.62185,186.29154 35.63839,25.9189 -4.04982,83.4262 z"
         id="path25372" />
      <path
         style="fill:#2d2d2d;fill-opacity:1;fill-rule:evenodd;stroke:#000000;stroke-width:3;stroke-linecap:round;stroke-linejoin:round;stroke-miterlimit:4;stroke-dasharray:none;stroke-opacity:1"
         d="m 691.70877,1037.7829 -4.04982,104.4852 33.2085,32.3986 27.53876,0 17.00923,-33.2085 190.34141,-2.4299 11.33949,32.3985 19.43912,10.5296 22.67894,-0.81 12.1495,-37.2583 20.2491,-3.2399 13.7693,-60.7472 -6.4797,-51.0277 -69.65681,21.059 z"
         id="path25362" />
      <path
         style="fill:#423a3a;fill-opacity:1;fill-rule:evenodd;stroke:#000000;stroke-width:3;stroke-linecap:round;stroke-linejoin:round;stroke-miterlimit:4;stroke-dasharray:none;stroke-opacity:1"
         d="m 718.43756,1053.1722 5.66975,85.8561 290.77689,-8.0996 6.4797,-93.9558 -33.20852,-17.0092 -220.31005,-1.62 z"
         id="path25354" />
      <path
         style="fill:#f4ba38;fill-opacity:1;fill-rule:evenodd;stroke:#000000;stroke-width:3;stroke-linecap:round;stroke-linejoin:round;stroke-miterlimit:4;stroke-dasharray:none;stroke-opacity:1"
         d="m 671.45968,1000.5245 -6.4797,5.6698 -183.8617,-177.382 0.80996,-93.95576 188.72148,-101.24543 42.1181,38.87825 -21.05905,317.50566 z"
         id="path25348" />
      <path
         style="fill:#7d7272;fill-opacity:1;fill-rule:evenodd;stroke:#000000;stroke-width:3;stroke-linecap:round;stroke-linejoin:round;stroke-miterlimit:4;stroke-dasharray:none;stroke-opacity:1"
         d="m 910.3989,1105.8198 21.86901,10.5295 21.86901,6.4797 1.61993,-4.0498 -23.48894,-6.4797 -10.52953,-5.6697 -10.52952,-5.6698 z"
         id="path25370" />
      <path
         style="fill:#7d7272;fill-opacity:1;fill-rule:evenodd;stroke:#000000;stroke-width:3;stroke-linecap:round;stroke-linejoin:round;stroke-miterlimit:4;stroke-dasharray:none;stroke-opacity:1"
         d="m 842.30499,1098.1313 5.25863,8.8526 -28.69059,10.9853 -23.48894,9.7196 -1.61993,-7.2897 12.95942,-5.6697 16.19926,-5.6698 8.15662,-4.2207 z"
         id="path25368" />
      <path
         style="fill:#7d7272;fill-opacity:1;fill-rule:evenodd;stroke:#000000;stroke-width:3;stroke-linecap:round;stroke-linejoin:round;stroke-miterlimit:4;stroke-dasharray:none;stroke-opacity:1"
         d="m 789.71434,1053.1722 0.80997,44.548 0,24.2989 8.9096,27.5387 14.57934,14.5794 14.57934,-1.62 11.33949,-11.3395 9.71956,-15.3893 -6.47971,-4.0498 -14.57934,17.8192 -12.14945,5.6698 -9.71956,-8.9096 -3.23986,-6.4797 -5.66974,-25.9189 0,-25.9188 -1.61993,-13.7694 -0.80996,-20.2491 0,-17.0092 -6.47971,0.81 z"
         id="path25364" />
      <path
         style="fill:#cec3c3;fill-opacity:1;fill-rule:evenodd;stroke:#000000;stroke-width:3;stroke-linecap:round;stroke-linejoin:round;stroke-miterlimit:4;stroke-dasharray:none;stroke-opacity:1"
         d="m 838.31215,1061.2718 -4.04982,46.9779 38.87825,-5.6698 5.66974,11.3395 10.52953,-6.4797 38.06828,-0.8099 -5.66975,-46.9779 -23.48894,-12.9594 -28.34872,-3.2399 -32.39853,21.0591 0,0.8099 z"
         id="path25358" />
      <path
         style="fill:#7d7272;fill-opacity:1;fill-rule:evenodd;stroke:#000000;stroke-width:3;stroke-linecap:round;stroke-linejoin:round;stroke-miterlimit:4;stroke-dasharray:none;stroke-opacity:1"
         d="m 916.06864,1126.0689 17.81919,26.7288 11.33949,8.0996 8.9096,-6.4797 4.04982,-12.1495 0,-46.9778 -0.80997,-17.0093 4.85978,-4.0498 -3.23985,-33.2085 -17.00923,1.6199 3.23985,32.3986 4.85978,5.6697 2.42989,51.8377 -4.04981,14.5793 -3.23986,0.81 -9.71956,-8.0996 -11.33949,-15.3894 -8.09963,-5.6697 z"
         id="path25366" />
      <path
         style="fill:#6b6262;fill-opacity:1;fill-rule:evenodd;stroke:#000000;stroke-width:3;stroke-linecap:round;stroke-linejoin:round;stroke-miterlimit:4;stroke-dasharray:none;stroke-opacity:1"
         d="m 665.78994,1002.1445 -0.057,42.1181 108.59208,0.8099 18.62916,-19.4391 179.00192,-2.4299 16.19926,18.6292 90.26004,0.753 2.3037,-43.45317 -203.78116,-10.70046 -111.52252,3.18288 z"
         id="path25350" />
      <path
         style="fill:#f2b324;fill-opacity:1;fill-rule:evenodd;stroke:#000000;stroke-width:3;stroke-linecap:round;stroke-linejoin:round;stroke-miterlimit:4;stroke-dasharray:none;stroke-opacity:1"
         d="m 663.36005,670.86943 2.54384,329.25627 c 0,0 139.15505,8.0427 162.16363,-0.86694 23.00858,-8.90961 1.33503,-1.97407 1.33503,-1.97407 l 98.81554,-2.42989 1.6769,6.0809 151.40621,2.8287 c 0,0 5.7741,-319.41173 -4.0498,-332.89497 -4.5335,-6.22217 -1.2558,-27.99326 -15.3893,-37.25832 -14.1336,-9.26506 -59.1274,-8.09963 -59.1274,-8.09963 -100.97543,-32.12855 -152.5431,-29.42867 -234.88937,0.80996 0,0 -79.86494,-7.3658 -96.38565,7.28967 -16.5207,14.65546 -8.22718,20.74909 -8.09963,37.25832 z"
         id="path25272" />
      <path
         style="fill:none;fill-rule:evenodd;stroke:#000000;stroke-width:3;stroke-linecap:round;stroke-linejoin:round;stroke-miterlimit:4;stroke-dasharray:none;stroke-opacity:1"
         d="M 665.78994,674.91925 1075.8553,669.2495"
         id="path25274" />
      <path
         style="fill:#4e434b;fill-opacity:1;fill-rule:evenodd;stroke:#000000;stroke-width:2.97881222;stroke-linecap:round;stroke-linejoin:round;stroke-miterlimit:4;stroke-dasharray:none;stroke-opacity:1"
         d="m 809.97355,684.43786 2.43036,153.29464 -96.40417,-3.19364 c -7.2302,-2.61588 -10.68966,-8.94799 -13.77203,-16.7666 l 0,-115.7694 c 0,0 -1.5312,-9.97934 16.31393,-15.96819 17.84515,-5.98884 91.43191,-1.59681 91.43191,-1.59681 z"
         id="path25276" />
      <path
         style="fill:#4e434b;fill-opacity:1;fill-rule:evenodd;stroke:#000000;stroke-width:3;stroke-linecap:round;stroke-linejoin:round;stroke-miterlimit:4;stroke-dasharray:none;stroke-opacity:1"
         d="m 826.1627,683.82884 0.80996,151.46317 100.43547,3.23985 -2.42989,-157.94287 z"
         id="path25278" />
      <path
         style="fill:none;fill-rule:evenodd;stroke:#000000;stroke-width:3;stroke-linecap:round;stroke-linejoin:round;stroke-miterlimit:4;stroke-dasharray:none;stroke-opacity:1"
         d="m 826.97266,835.29201 0.80997,169.28239"
         id="path25282" />
      <path
         style="fill:none;fill-rule:evenodd;stroke:#000000;stroke-width:3;stroke-linecap:round;stroke-linejoin:round;stroke-miterlimit:4;stroke-dasharray:none;stroke-opacity:1"
         d="m 925.7882,838.53186 2.42989,166.04254"
         id="path25284" />
      <path
         style="fill:#b7533d;fill-opacity:1;fill-rule:evenodd;stroke:none;stroke-width:3;stroke-linecap:round;stroke-linejoin:round;stroke-miterlimit:4;stroke-dasharray:none;stroke-opacity:1"
         d="m 873.14058,917.09831 1.54228,19.43912 49.35329,-1.61992 0.77115,-17.00923 z"
         id="path25286" />
      <rect
         ry="12.750813"
         y="902.55133"
         x="705.51056"
         height="50.153091"
         width="73.642029"
         id="rect25336"
         style="opacity:1;fill:#c3b9bc;fill-opacity:1;stroke:#000000;stroke-width:3;stroke-linecap:round;stroke-linejoin:round;stroke-miterlimit:4;stroke-dasharray:none;stroke-opacity:1" />
      <rect
         style="opacity:1;fill:#835d64;fill-opacity:1;stroke:#000000;stroke-width:3;stroke-linecap:round;stroke-linejoin:round;stroke-miterlimit:4;stroke-dasharray:none;stroke-opacity:1"
         id="rect25338"
         width="21.869013"
         height="34.018463"
         x="711.95782"
         y="910.61859"
         ry="0" />
      <rect
         ry="0"
         y="911.26337"
         x="735.71149"
         height="32.728828"
         width="35.968681"
         id="rect25340"
         style="opacity:1;fill:#f8f4bf;fill-opacity:1;stroke:#000000;stroke-width:3;stroke-linecap:round;stroke-linejoin:round;stroke-miterlimit:4;stroke-dasharray:none;stroke-opacity:1" />
      <rect
         style="opacity:1;fill:#c3b9bc;fill-opacity:1;stroke:#000000;stroke-width:3;stroke-linecap:round;stroke-linejoin:round;stroke-miterlimit:4;stroke-dasharray:none;stroke-opacity:1"
         id="rect25342"
         width="73.642029"
         height="50.153091"
         x="969.55865"
         y="901.74139"
         ry="12.750813" />
      <rect
         ry="0"
         y="909.80865"
         x="-1035.7283"
         height="34.018463"
         width="21.869013"
         id="rect25344"
         style="opacity:1;fill:#835d64;fill-opacity:1;stroke:#000000;stroke-width:3;stroke-linecap:round;stroke-linejoin:round;stroke-miterlimit:4;stroke-dasharray:none;stroke-opacity:1"
         transform="scale(-1,1)" />
      <rect
         style="opacity:1;fill:#f8f4bf;fill-opacity:1;stroke:#000000;stroke-width:3;stroke-linecap:round;stroke-linejoin:round;stroke-miterlimit:4;stroke-dasharray:none;stroke-opacity:1"
         id="rect25346"
         width="35.968681"
         height="32.728828"
         x="-1011.9746"
         y="910.45343"
         ry="0"
         transform="scale(-1,1)" />
      <path
         style="fill:#cec3c3;fill-opacity:1;fill-rule:evenodd;stroke:#000000;stroke-width:3;stroke-linecap:round;stroke-linejoin:round;stroke-miterlimit:4;stroke-dasharray:none;stroke-opacity:1"
         d="m 827.78263,995.66476 0,7.28964 104.48528,-0.8099 0.80996,-9.71959 z"
         id="path25352" />
      <path
         style="fill:#6a5f5f;fill-opacity:1;fill-rule:evenodd;stroke:#000000;stroke-width:3;stroke-linecap:round;stroke-linejoin:round;stroke-miterlimit:4;stroke-dasharray:none;stroke-opacity:1"
         d="m 844.20981,1111.0907 -3.46777,31.1774 77.75649,0.81 1.61993,-27.5387 z"
         id="path25356" />
      <path
         style="fill:#7d7272;fill-opacity:1;fill-rule:evenodd;stroke:#000000;stroke-width:3;stroke-linecap:round;stroke-linejoin:round;stroke-miterlimit:4;stroke-dasharray:none;stroke-opacity:1"
         d="m 663.82814,1036.745 -184.32979,-197.40318 0,-13.76938 185.19673,172.40826 z"
         id="path25360" />
      <rect
         style="opacity:1;fill:#4e434b;fill-opacity:1;stroke:#000000;stroke-width:3;stroke-linecap:round;stroke-linejoin:round;stroke-miterlimit:4;stroke-dasharray:none;stroke-opacity:1"
         id="rect25374"
         width="154.98859"
         height="38.353848"
         x="801.37671"
         y="617.96259"
         ry="12.450914"
         rx="10.201058" />
      <path
         style="fill:#4e434b;fill-opacity:1;fill-rule:evenodd;stroke:#000000;stroke-width:3;stroke-linecap:round;stroke-linejoin:round;stroke-miterlimit:4;stroke-dasharray:none;stroke-opacity:1"
         d="m 632.58144,687.87866 -0.80996,115.01481 1.61992,20.24908 7.28967,6.47971 3.23986,-96.38565 -1.61993,-46.97788 z"
         id="path25376" />
      <path
         style="fill:#4e434b;fill-opacity:1;fill-rule:evenodd;stroke:#000000;stroke-width:3;stroke-linecap:round;stroke-linejoin:round;stroke-miterlimit:4;stroke-dasharray:none;stroke-opacity:1"
         d="m 617.19213,693.54841 -5.66974,119.87458 8.09963,7.28967 1.61993,-38.87824 0.80996,-57.5074 2.42989,-29.15869 z"
         id="path25378" />
      <path
         style="fill:#4e434b;fill-opacity:1;fill-rule:evenodd;stroke:#000000;stroke-width:3;stroke-linecap:round;stroke-linejoin:round;stroke-miterlimit:4;stroke-dasharray:none;stroke-opacity:1"
         d="m 604.23272,698.40819 0,119.06462 -12.14945,-6.47971 4.04981,-114.20484 z"
         id="path25380" />
      <path
         style="fill:#4e434b;fill-opacity:1;fill-rule:evenodd;stroke:#000000;stroke-width:3;stroke-linecap:round;stroke-linejoin:round;stroke-miterlimit:4;stroke-dasharray:none;stroke-opacity:1"
         d="m 588.03345,699.21815 0.80996,110.96499 -8.90959,-5.66974 0,-103.67532 z"
         id="path25382" />
      <path
         style="fill:#4e434b;fill-opacity:1;fill-rule:evenodd;stroke:#000000;stroke-width:3;stroke-linecap:round;stroke-linejoin:round;stroke-miterlimit:4;stroke-dasharray:none;stroke-opacity:1"
         d="m 575.884,705.69786 -4.85978,93.14579 -8.09964,-4.04982 4.04982,-87.47605 z"
         id="path25384" />
      <path
         style="fill:#4e434b;fill-opacity:1;fill-rule:evenodd;stroke:#000000;stroke-width:3;stroke-linecap:round;stroke-linejoin:round;stroke-miterlimit:4;stroke-dasharray:none;stroke-opacity:1"
         d="m 560.49469,710.55764 -2.42989,83.42623 -6.4797,0 -0.80997,-81.80631 z"
         id="path25396" />
      <path
         style="fill:#4e434b;fill-opacity:1;fill-rule:evenodd;stroke:#000000;stroke-width:3;stroke-linecap:round;stroke-linejoin:round;stroke-miterlimit:4;stroke-dasharray:none;stroke-opacity:1"
         d="m 535.38583,720.2772 6.4797,0 -3.23985,64.79707 -7.28967,-5.66974 z"
         id="path25398" />
      <path
         style="fill:#4e434b;fill-opacity:1;fill-rule:evenodd;stroke:#000000;stroke-width:3;stroke-linecap:round;stroke-linejoin:round;stroke-miterlimit:4;stroke-dasharray:none;stroke-opacity:1"
         d="m 520.80649,728.37683 7.28967,1.61993 -4.04982,41.30813 -6.47971,-1.61992 z"
         id="path25400" />
      <path
         style="fill:#4e434b;fill-opacity:1;fill-rule:evenodd;stroke:#000000;stroke-width:3;stroke-linecap:round;stroke-linejoin:round;stroke-miterlimit:4;stroke-dasharray:none;stroke-opacity:1"
         d="m 507.03711,736.47647 4.85978,0 0,25.91883 -7.28967,-2.42989 z"
         id="path25402" />
      <path
         style="fill:#4e434b;fill-opacity:1;fill-rule:evenodd;stroke:#000000;stroke-width:3;stroke-linecap:round;stroke-linejoin:round;stroke-miterlimit:4;stroke-dasharray:none;stroke-opacity:1"
         d="m 497.31755,742.95617 1.61992,12.95942 3.23986,-12.14945 z"
         id="path25404" />
      <path
         style="fill:#4e434b;fill-opacity:1;fill-rule:evenodd;stroke:#000000;stroke-width:3;stroke-linecap:round;stroke-linejoin:round;stroke-miterlimit:4;stroke-dasharray:none;stroke-opacity:1"
         d="m 492.45777,744.5761 -3.23986,8.9096 z"
         id="path25406" />
      <path
         style="fill:#4e434b;fill-opacity:1;fill-rule:evenodd;stroke:#000000;stroke-width:3;stroke-linecap:round;stroke-linejoin:round;stroke-miterlimit:4;stroke-dasharray:none;stroke-opacity:1"
         d="m 491.6478,744.5761 2.42989,9.71956 -5.66974,-1.61992 z"
         id="path25408" />
      <path
         style="fill:#2d1a1a;fill-opacity:1;fill-rule:evenodd;stroke:#000000;stroke-width:3;stroke-linecap:round;stroke-linejoin:round;stroke-miterlimit:4;stroke-dasharray:none;stroke-opacity:1"
         d="m 757.84597,849.00542 5.94954,1.67589 28.34872,-65.60704 8.09964,-24.2989 -27.38559,54.53263 z"
         id="path25418" />
      <path
         id="path25424"
         d="m 945.91151,682.92985 -2.43036,153.29464 96.40415,-3.19364 c 7.2302,-2.61588 10.6897,-8.94799 13.7721,-16.7666 l 0,-115.7694 c 0,0 1.5312,-9.97934 -16.314,-15.96819 -17.8451,-5.98884 -91.43189,-1.59681 -91.43189,-1.59681 z"
         style="fill:#4e434b;fill-opacity:1;fill-rule:evenodd;stroke:#000000;stroke-width:2.97881222;stroke-linecap:round;stroke-linejoin:round;stroke-miterlimit:4;stroke-dasharray:none;stroke-opacity:1" />
      <path
         style="fill:#2d1a1a;fill-opacity:1;fill-rule:evenodd;stroke:#000000;stroke-width:3;stroke-linecap:round;stroke-linejoin:round;stroke-miterlimit:4;stroke-dasharray:none;stroke-opacity:1"
         d="m 990.58527,851.49127 5.66975,0.80997 -3.23986,-31.58858 -2.42989,-68.03692 -3.23985,6.4797 3.23986,68.8469 1.61992,20.24908 z"
         id="path25422" />
      <path
         style="fill:none;fill-rule:evenodd;stroke:#000000;stroke-width:2.98137212;stroke-linecap:round;stroke-linejoin:round;stroke-miterlimit:4;stroke-dasharray:none;stroke-opacity:1"
         d="m 582.06231,681.56755 -8.68824,234.09344"
         id="path25426" />
      <path
         id="path25428"
         d="m 520.47867,714.8048 -9.29616,139.34456"
         style="fill:none;fill-rule:evenodd;stroke:#000000;stroke-width:2.37931895;stroke-linecap:round;stroke-linejoin:round;stroke-miterlimit:4;stroke-dasharray:none;stroke-opacity:1" />
      <g
         transform="matrix(0.95685587,0.07006961,-0.086167,1.2280537,75.074011,-207.49696)"
         style="font-style:normal;font-weight:normal;font-size:25.11504555px;line-height:125%;font-family:sans-serif;letter-spacing:0px;word-spacing:0px;fill:#b7533d;fill-opacity:1;stroke:none;stroke-width:1px;stroke-linecap:butt;stroke-linejoin:miter;stroke-opacity:1"
         id="text25430">
        <path
           d="m 882.32812,860.22544 q -0.20092,2.08455 -0.22603,4.94767 0.80368,-1.05484 1.63247,-1.48179 0.8288,-0.42696 2.08455,-0.42696 2.51151,0 3.9933,1.75805 1.48178,1.75806 1.48178,4.6714 0,3.18961 -1.58224,5.09836 -1.55714,1.88363 -4.21933,1.88363 -2.58685,0 -3.74214,-1.93386 0.10046,0.72833 0.10046,0.80368 0,0.90414 -0.87903,0.90414 -0.87903,0 -0.87903,-1.25575 0,-0.35161 0.0251,-0.52742 0,-0.57764 0.0251,-1.23063 l 0.0754,-1.93386 0.0502,-2.53662 -0.0502,-6.70572 q -0.0251,-0.92926 -0.20092,-1.25575 -0.15069,-0.3265 -0.55253,-0.3265 -0.0753,0 -0.65299,0.10046 -0.27627,0.0502 -0.47719,0.0502 -0.85391,0 -0.85391,-0.80368 0,-0.8288 1.0046,-0.8288 0.30138,0 0.5023,0.0251 l 0.60276,0.0753 q 0.40184,0.0502 0.65299,0.0502 0.27627,0 0.77857,-0.0753 0.5023,-0.10046 0.75345,-0.10046 0.55253,0 0.55253,0.70322 l 0,0.35161 z m -0.0251,7.28336 q -0.17581,0.80369 -0.17581,2.26036 0,2.48639 0.40184,3.41564 0.77857,1.8334 2.96358,1.8334 1.73294,0 2.73754,-1.35621 1.02971,-1.38133 1.02971,-3.69191 0,-2.36082 -0.97948,-3.69191 -0.95437,-1.35622 -2.63708,-1.35622 -1.18041,0 -2.13478,0.75346 -0.95437,0.72833 -1.20552,1.83339 z"
           style="font-style:normal;font-variant:normal;font-weight:normal;font-stretch:normal;font-family:'American Typewriter';-inkscape-font-specification:'American Typewriter';fill:#b7533d;fill-opacity:1"
           id="path25435" />
        <path
           d="m 904.64166,868.86502 q 0,0.95437 -0.12557,1.1804 -0.12558,0.20092 -0.72834,0.20092 l -7.98658,0 q -0.3265,0 -0.42696,0.10046 -0.10046,0.0753 -0.10046,0.27627 0,1.88363 1.13018,3.13938 1.13017,1.25575 2.81288,1.25575 1.10506,0 2.00921,-0.60276 0.92925,-0.60276 1.20552,-1.53202 l 0.22603,-0.72833 q 0.17581,-0.60276 0.8288,-0.60276 0.92926,0 0.92926,0.95437 0,1.63248 -1.6576,2.91334 -1.65759,1.25576 -3.76725,1.25576 -2.63708,0 -4.19422,-1.75806 -1.55713,-1.78317 -1.55713,-4.77186 0,-3.06403 1.65759,-4.97277 1.6576,-1.90875 4.31979,-1.90875 2.36082,0 3.89283,1.58225 1.53202,1.58225 1.53202,4.01841 z m -9.11676,-0.65299 q 0,0.35161 0.55253,0.35161 l 6.0025,0 q 0.52741,0 0.52741,-0.35161 0,-1.3311 -1.0046,-2.31059 -1.0046,-0.97949 -2.36081,-0.97949 -1.40644,0 -2.56174,1.02972 -1.15529,1.0046 -1.15529,2.26036 z"
           style="font-style:normal;font-variant:normal;font-weight:normal;font-stretch:normal;font-family:'American Typewriter';-inkscape-font-specification:'American Typewriter';fill:#b7533d;fill-opacity:1"
           id="path25437" />
      </g>
      <g
         style="font-style:normal;font-weight:normal;font-size:40px;line-height:125%;font-family:sans-serif;letter-spacing:0px;word-spacing:0px;fill:#f2b324;fill-opacity:1;stroke:none;stroke-width:1px;stroke-linecap:butt;stroke-linejoin:miter;stroke-opacity:1"
         id="text25439"
         transform="matrix(0.33877972,0,0,0.37809028,578.55107,583.2318)">
        <path
           d="m 910.29489,902.78781 q 0,4.08 -4.64,5.76 1.68,0.52 2.76,1.16 3.24,1.88 3.24,5.64 0,3.68 -2.84,5.88 -2.84,2.16 -7.6,2.16 -1.72,0 -4.36,-0.2 -2.64,-0.2 -3.88,-0.2 -1.08,0 -2.04,0.12 l -1.88,0.24 q -0.08,0 -0.28,0.04 -0.2,0 -0.28,0 -1.72,-0.04 -1.72,-1.44 0,-1.28 1.24,-1.28 0.32,0 1.08,0.12 0.52,0.08 0.84,0.08 2.04,0 2.04,-2.96 l 0,-16.08 q 0,-3 -2.04,-3 -0.36,0 -0.84,0.08 -0.72,0.12 -1.08,0.12 -1.24,0 -1.24,-1.28 0,-1.4 1.84,-1.4 l 0.52,0 1.96,0.28 q 0.84,0.12 2.28,0.12 1.52,0 4.32,-0.24 1.88,-0.16 4.04,-0.16 4.04,0 6.28,1.72 2.28,1.68 2.28,4.72 z m -15.32,1.72 q 0,2.12 0.36,2.64 0.4,0.48 2.12,0.48 l 2.24,0 q 7.08,0 7.08,-4.6 0,-4.2 -5.84,-4.2 -4.08,0 -5.04,0.52 -0.92,0.52 -0.92,2.68 l 0,2.48 z m 0,8.12 0,4.44 q 0,2.6 0.88,3.2 0.88,0.6 4.8,0.6 7.48,0 7.48,-5.6 0,-5.16 -7.2,-5.16 l -3.32,0 q -2.16,0 -2.48,0.96 -0.16,0.48 -0.16,1.56 z"
           style="font-style:normal;font-variant:normal;font-weight:normal;font-stretch:normal;font-family:'American Typewriter';-inkscape-font-specification:'American Typewriter';fill:#f2b324;fill-opacity:1"
           id="path25444" />
        <path
           d="m 933.39114,911.42781 q 0,1.52 -0.2,1.88 -0.2,0.32 -1.16,0.32 l -12.72,0 q -0.52,0 -0.68,0.16 -0.16,0.12 -0.16,0.44 0,3 1.8,5 1.8,2 4.48,2 1.76,0 3.2,-0.96 1.48,-0.96 1.92,-2.44 l 0.36,-1.16 q 0.28,-0.96 1.32,-0.96 1.48,0 1.48,1.52 0,2.6 -2.64,4.64 -2.64,2 -6,2 -4.2,0 -6.68,-2.8 -2.48,-2.84 -2.48,-7.6 0,-4.88 2.64,-7.92 2.64,-3.04 6.88,-3.04 3.76,0 6.2,2.52 2.44,2.52 2.44,6.4 z m -14.52,-1.04 q 0,0.56 0.88,0.56 l 9.56,0 q 0.84,0 0.84,-0.56 0,-2.12 -1.6,-3.68 -1.6,-1.56 -3.76,-1.56 -2.24,0 -4.08,1.64 -1.84,1.6 -1.84,3.6 z"
           style="font-style:normal;font-variant:normal;font-weight:normal;font-stretch:normal;font-family:'American Typewriter';-inkscape-font-specification:'American Typewriter';fill:#f2b324;fill-opacity:1"
           id="path25446" />
        <path
           d="m 942.44302,904.34781 0,1.08 q 2.08,-2.92 5.56,-2.92 2.8,0 4.52,1.6 1.76,1.56 1.76,4.04 0,1.76 -0.88,2.88 -0.88,1.08 -2.32,1.08 -0.92,0 -1.56,-0.56 -0.64,-0.56 -0.64,-1.36 0,-0.64 0.48,-1.12 0.48,-0.52 1.12,-0.52 0.12,0 0.52,0.12 0.24,-0.48 0.24,-0.88 0,-1.16 -1.04,-1.96 -1,-0.8 -2.52,-0.8 -3.12,0 -4.16,2.8 -0.64,1.72 -0.64,5.2 l 0,2.64 q 0,2.68 0.04,3 0.2,2.28 1.24,2.28 0.52,0 1.08,-0.16 0.44,-0.12 0.76,-0.12 1.28,0 1.28,1.28 0,1.4 -1.64,1.4 l -0.16,0 q -0.6,0 -1.84,-0.16 -1.2,-0.12 -1.8,-0.12 -1.6,0 -2.52,0.08 l -2.24,0.2 q -1.64,0 -1.64,-1.4 0,-1.24 1.52,-1.24 0.4,0 0.6,0.04 l 0.6,0.12 q 0.4,0.08 0.56,0.08 1,0 1.08,-1.84 l 0.08,-2.04 -0.12,-9.08 q -0.12,-2.36 -1.2,-2.36 -0.32,0 -0.88,0.12 -0.56,0.12 -0.88,0.12 -1.32,0 -1.32,-1.28 0,-1.4 1.72,-1.4 0.4,0 1.2,0.12 0.8,0.08 1.2,0.08 0.32,0 1.04,-0.08 0.32,-0.08 0.76,-0.08 1.04,0 1.04,1.12 z"
           style="font-style:normal;font-variant:normal;font-weight:normal;font-stretch:normal;font-family:'American Typewriter';-inkscape-font-specification:'American Typewriter';fill:#f2b324;fill-opacity:1"
           id="path25448" />
        <path
           d="m 962.33052,906.46781 0.04,12.44 q 0.04,2.04 1.08,2.04 0.24,0 1,-0.2 0.48,-0.08 0.64,-0.08 1.32,0 1.32,1.36 0,1.32 -1.64,1.32 -0.64,0 -2.04,-0.16 -1.4,-0.16 -2.16,-0.16 -0.64,0 -1.92,0.16 -1.28,0.16 -1.88,0.16 l -0.2,0 q -1.68,0 -1.68,-1.44 0,-1.24 1.36,-1.24 0.08,0 0.28,0 0.24,0.04 0.36,0.04 1,0.16 1.16,0.16 0.72,0 0.88,-0.6 0.2,-0.64 0.24,-3.24 l 0.04,-2.8 0.12,-6.2 -0.04,-7.12 q -0.04,-1.2 -0.12,-1.6 -0.28,-0.92 -1.12,-0.92 -0.12,0 -1.04,0.16 -0.44,0.08 -0.72,0.08 -1.36,0 -1.36,-1.28 0,-1.32 1.6,-1.32 0.44,0 0.76,0.04 l 0.96,0.12 q 0.64,0.08 1.08,0.08 0.4,0 1.2,-0.12 0.8,-0.16 1.2,-0.16 0.92,0 0.92,1.16 0,0.4 -0.04,0.6 -0.28,3.08 -0.28,8.72 z"
           style="font-style:normal;font-variant:normal;font-weight:normal;font-stretch:normal;font-family:'American Typewriter';-inkscape-font-specification:'American Typewriter';fill:#f2b324;fill-opacity:1"
           id="path25450" />
        <path
           d="m 974.91427,911.58781 0,5.2 q 0,2 0.04,2.36 0.2,1.8 1.08,1.8 0.2,0 1,-0.2 0.2,-0.08 0.6,-0.08 1.52,0 1.52,1.32 0,0.56 -0.52,0.96 -0.48,0.4 -1.24,0.4 -0.64,0 -1.96,-0.16 -1.28,-0.2 -1.92,-0.2 -1.04,0 -2.32,0.16 -1.56,0.2 -2.08,0.2 -1.6,0 -1.6,-1.36 0,-1.32 1.36,-1.32 0.32,0 0.92,0.12 0.64,0.12 0.96,0.12 0.96,0 1.16,-2.56 0,-0.16 0,-3.48 l 0,-3.28 q 0,-3.32 0,-3.48 -0.2,-2.52 -1.2,-2.52 -0.32,0 -0.92,0.16 -0.56,0.12 -0.84,0.12 -1.44,0 -1.44,-1.28 0,-1.36 1.76,-1.36 0.76,0 1.08,0.04 1.28,0.16 1.64,0.16 0.32,0 0.96,-0.08 0.68,-0.12 1,-0.12 1.16,0 1.16,1.56 0,0.16 -0.04,0.48 -0.04,0.32 -0.04,0.48 -0.04,0.32 -0.08,2.48 -0.04,1.64 -0.04,3.36 z m -2.08,-10.48 q -0.92,0 -1.6,-0.64 -0.64,-0.68 -0.64,-1.6 0,-0.92 0.64,-1.56 0.68,-0.64 1.6,-0.64 0.92,0 1.56,0.64 0.68,0.64 0.68,1.56 0,0.92 -0.68,1.6 -0.64,0.64 -1.56,0.64 z"
           style="font-style:normal;font-variant:normal;font-weight:normal;font-stretch:normal;font-family:'American Typewriter';-inkscape-font-specification:'American Typewriter';fill:#f2b324;fill-opacity:1"
           id="path25452" />
        <path
           d="m 986.97614,904.42781 0,1.12 q 2.4,-3.04 6.4,-3.04 2.16,0 4.08,1.12 1.92,1.08 2.59996,2.72 0.56,1.36 0.56,3.56 l 0,7.6 q 0,1.72 0.04,2.04 0.2,1.36 1.08,1.36 0.36,0 0.92,-0.08 0.6,-0.12 0.84,-0.12 0.52,0 0.88,0.36 0.4,0.36 0.4,0.88 0,0.6 -0.48,1 -0.48,0.4 -1.16,0.4 -0.56,0 -1.84,-0.16 -1.28,-0.16 -2.39996,-0.16 -1.04,0 -1.72,0.08 -2,0.24 -2.12,0.24 -1.6,0 -1.6,-1.4 0,-1.24 1.36,-1.24 0.32,0 0.72,0.08 0.76,0.16 0.96,0.16 0.96,0 1.04,-2.2 l 0.08,-2.04 0.04,-2.44 0,-3.04 q 0,-2.12 -0.2,-2.92 -0.36,-1.52 -1.56,-2.36 -1.32,-0.92 -3,-0.92 -3.2,0 -4.6,2.28 -0.96,1.56 -0.96,5.32 l 0,5.32 q 0,1.76 0.24,2.4 0.24,0.64 0.88,0.64 0.32,0 0.88,-0.16 0.56,-0.16 0.92,-0.16 1.24,0 1.24,1.36 0,1.32 -1.6,1.32 -0.32,0 -2.08,-0.24 -0.88,-0.12 -1.96,-0.12 -0.84,0 -2.24,0.16 -1.76,0.2 -2,0.2 -1.68,0 -1.68,-1.36 0,-1.28 1.28,-1.28 0.2,0 0.72,0.12 0.56,0.12 1.08,0.12 1.2,0 1.24,-2.32 l 0.08,-4.44 0,-4.84 -0.08,-1.4 q -0.08,-1.36 -0.36,-1.84 -0.24,-0.52 -0.88,-0.52 -0.28,0 -0.84,0.12 -0.52,0.08 -0.8,0.08 -1.44,0 -1.44,-1.28 0,-1.32 1.8,-1.32 0.24,0 0.4,0.04 l 1.48,0.16 q 0.64,0 1.12,-0.08 1.04,-0.08 1.08,-0.08 1.16,0 1.16,1.2 z"
           style="font-style:normal;font-variant:normal;font-weight:normal;font-stretch:normal;font-family:'American Typewriter';-inkscape-font-specification:'American Typewriter';fill:#f2b324;fill-opacity:1"
           id="path25454" />
      </g>
      <g
         transform="scale(0.91412675,1.0939402)"
         style="font-style:normal;font-weight:normal;font-size:28.19354057px;line-height:125%;font-family:sans-serif;letter-spacing:0px;word-spacing:0px;fill:#000000;fill-opacity:1;stroke:none;stroke-width:1px;stroke-linecap:butt;stroke-linejoin:miter;stroke-opacity:1"
         id="text25456">
        <path
           d="m 952.54236,889.69282 q 0,3.12497 -2.06495,5.10733 -2.0512,1.96859 -5.0385,1.96859 -1.5143,0 -2.75327,-0.46806 -1.23898,-0.46806 -2.18886,-1.3904 -1.18391,-1.14261 -1.83093,-3.02861 -0.63325,-1.88599 -0.63325,-4.5429 0,-2.72574 0.57819,-4.832 0.59195,-2.10625 1.87223,-3.74445 1.21144,-1.5556 3.12496,-2.42289 1.91353,-0.88104 4.46031,-0.88104 0.81222,0 1.36287,0.0688 0.55066,0.0688 1.11508,0.24779 l 0,2.62938 -0.13767,0 q -0.38546,-0.2065 -1.17014,-0.38546 -0.77092,-0.19273 -1.58313,-0.19273 -2.95977,0 -4.72187,1.85846 -1.7621,1.8447 -2.05119,4.9972 1.15638,-0.70209 2.27145,-1.06001 1.12885,-0.37169 2.60185,-0.37169 1.3078,0 2.29898,0.24779 1.00495,0.23403 2.05119,0.96365 1.21144,0.83975 1.81716,2.12002 0.61949,1.28027 0.61949,3.1112 z m -2.79457,0.11013 q 0,-1.28027 -0.38546,-2.12002 -0.37169,-0.83975 -1.23898,-1.45924 -0.63325,-0.44052 -1.40417,-0.57819 -0.77091,-0.13766 -1.61066,-0.13766 -1.17014,0 -2.17509,0.27533 -1.00495,0.27533 -2.06496,0.85351 -0.0275,0.30286 -0.0413,0.59196 -0.0138,0.27533 -0.0138,0.70208 0,2.17509 0.44052,3.4416 0.45429,1.25274 1.23898,1.98236 0.63325,0.60572 1.36287,0.89481 0.74338,0.27533 1.61066,0.27533 1.99613,0 3.13874,-1.21144 1.14261,-1.22521 1.14261,-3.51043 z"
           id="path25461" />
        <path
           d="m 970.65891,890.57387 -3.04237,0 0,5.76811 -2.64314,0 0,-5.76811 -9.81543,0 0,-3.16627 9.92556,-11.56376 2.53301,0 0,12.52741 3.04237,0 0,2.20262 z m -5.68551,-2.20262 0,-9.25101 -7.9432,9.25101 7.9432,0 z"
           id="path25463" />
        <path
           d="m 986.33882,886.47149 q 0.66078,0.59195 1.08754,1.48677 0.42676,0.89481 0.42676,2.31275 0,1.40417 -0.50936,2.57431 -0.50935,1.17014 -1.4317,2.03742 -1.03248,0.96365 -2.43665,1.43171 -1.3904,0.45429 -3.05614,0.45429 -1.70703,0 -3.35899,-0.41299 -1.65197,-0.39923 -2.71198,-0.88105 l 0,-2.87717 0.2065,0 q 1.17014,0.77091 2.75327,1.28027 1.58314,0.50935 3.05614,0.50935 0.86728,0 1.84469,-0.28909 0.97742,-0.28909 1.58314,-0.85351 0.63325,-0.60573 0.93611,-1.33534 0.31663,-0.72962 0.31663,-1.8447 0,-1.10131 -0.35793,-1.81716 -0.34416,-0.72962 -0.96365,-1.14261 -0.61948,-0.42676 -1.50053,-0.57819 -0.88105,-0.16519 -1.89976,-0.16519 l -1.23897,0 0,-2.28522 0.96364,0 q 2.09249,0 3.33146,-0.86728 1.25275,-0.88105 1.25275,-2.56055 0,-0.74338 -0.31663,-1.29404 -0.31663,-0.56442 -0.88105,-0.92235 -0.59195,-0.35792 -1.26651,-0.49559 -0.67455,-0.13766 -1.52806,-0.13766 -1.30781,0 -2.78081,0.46806 -1.473,0.46805 -2.78081,1.32157 l -0.13766,0 0,-2.87717 q 0.97741,-0.48183 2.60184,-0.88105 1.6382,-0.41299 3.16627,-0.41299 1.50053,0 2.64314,0.27532 1.14261,0.27533 2.06496,0.88105 0.99118,0.66079 1.50053,1.5969 0.50936,0.93612 0.50936,2.18886 0,1.70703 -1.21144,2.9873 -1.19768,1.26651 -2.83588,1.5969 l 0,0.19273 q 0.66079,0.11013 1.51431,0.46806 0.85351,0.34416 1.44547,0.86728 z"
           id="path25465" />
      </g>
      <g
         transform="scale(0.77685453,1.2872423)"
         style="font-style:normal;font-weight:normal;font-size:31.0741806px;line-height:125%;font-family:sans-serif;letter-spacing:0px;word-spacing:0px;fill:#d7e1ee;fill-opacity:1;stroke:none;stroke-width:1px;stroke-linecap:butt;stroke-linejoin:miter;stroke-opacity:1"
         id="text25467">
        <path
           d="m 1061.5566,488.28466 -3.303,12.70829 -1.9032,0 -2.6714,-10.54899 -2.6117,10.54899 -1.8606,0 -3.3627,-12.70829 1.7326,0 2.6714,10.56606 2.6287,-10.56606 1.7155,0 2.6543,10.66848 2.6543,-10.66848 1.6558,0 z"
           style="font-size:17.47922707px;fill:#d7e1ee;fill-opacity:1"
           id="path25472" />
        <path
           d="m 1071.3204,500.99295 -1.5961,0 0,-1.01564 q -0.2133,0.14509 -0.5803,0.40967 -0.3585,0.25604 -0.6999,0.40967 -0.4011,0.1963 -0.9217,0.32432 -0.5206,0.13656 -1.2205,0.13656 -1.2887,0 -2.1849,-0.85348 -0.8962,-0.85348 -0.8962,-2.17637 0,-1.08391 0.4609,-1.74963 0.4694,-0.67425 1.3315,-1.05831 0.8705,-0.38407 2.091,-0.52062 1.2204,-0.13656 2.6201,-0.20484 l 0,-0.2475 q 0,-0.54623 -0.1963,-0.90469 -0.1877,-0.35846 -0.5462,-0.5633 -0.3414,-0.1963 -0.8193,-0.26458 -0.478,-0.0683 -0.9986,-0.0683 -0.6316,0 -1.4082,0.17069 -0.7767,0.16216 -1.6046,0.47795 l -0.085,0 0,-1.63014 q 0.4694,-0.12802 1.357,-0.28165 0.8876,-0.15363 1.7497,-0.15363 1.0071,0 1.7496,0.1707 0.751,0.16216 1.2973,0.56329 0.5377,0.3926 0.8193,1.01564 0.2817,0.62304 0.2817,1.5448 l 0,6.46936 z m -1.5961,-2.34706 0,-2.65432 q -0.7339,0.0427 -1.7325,0.12802 -0.99,0.0854 -1.5704,0.24751 -0.6913,0.1963 -1.1181,0.6145 -0.4267,0.40967 -0.4267,1.13513 0,0.81934 0.495,1.23754 0.495,0.40967 1.5107,0.40967 0.8449,0 1.5448,-0.32432 0.6998,-0.33286 1.2972,-0.79373 z"
           style="font-size:17.47922707px;fill:#d7e1ee;fill-opacity:1"
           id="path25474" />
        <path
           d="m 1080.3416,493.20923 -0.085,0 q -0.3585,-0.0854 -0.6999,-0.11948 -0.3328,-0.0427 -0.7937,-0.0427 -0.7425,0 -1.4339,0.33286 -0.6913,0.32432 -1.3314,0.84494 l 0,6.76808 -1.6045,0 0,-9.53335 1.6045,0 0,1.40824 q 0.9559,-0.76813 1.6814,-1.08392 0.734,-0.32432 1.4935,-0.32432 0.4183,0 0.606,0.0256 0.1878,0.0171 0.5633,0.0768 l 0,1.64721 z"
           style="font-size:17.47922707px;fill:#d7e1ee;fill-opacity:1"
           id="path25476" />
        <path
           d="m 1088.6801,498.24475 q 0,1.30582 -1.0839,2.14223 -1.0754,0.83641 -2.9445,0.83641 -1.0583,0 -1.946,-0.24751 -0.879,-0.25604 -1.4765,-0.55476 l 0,-1.80084 0.085,0 q 0.7596,0.57183 1.6899,0.91322 0.9303,0.33286 1.7837,0.33286 1.0583,0 1.6558,-0.34139 0.5974,-0.34139 0.5974,-1.07538 0,-0.5633 -0.3243,-0.85348 -0.3243,-0.29018 -1.2461,-0.49502 -0.3414,-0.0768 -0.8961,-0.17923 -0.5463,-0.10242 -0.9986,-0.2219 -1.2546,-0.33286 -1.7838,-0.97297 -0.5206,-0.64864 -0.5206,-1.58747 0,-0.5889 0.239,-1.10952 0.2475,-0.52062 0.7425,-0.93029 0.478,-0.40113 1.2119,-0.63157 0.7426,-0.23898 1.6558,-0.23898 0.8535,0 1.724,0.21337 0.8791,0.20484 1.4595,0.50355 l 0,1.7155 -0.085,0 q -0.6145,-0.45235 -1.4936,-0.7596 -0.8791,-0.31579 -1.724,-0.31579 -0.8791,0 -1.485,0.34139 -0.606,0.33286 -0.606,0.99857 0,0.5889 0.367,0.88762 0.3584,0.29872 1.1607,0.48648 0.4438,0.10242 0.99,0.20484 0.5548,0.10241 0.9218,0.18776 1.1181,0.25605 1.724,0.87908 0.606,0.63158 0.606,1.67282 z"
           style="font-size:17.47922707px;fill:#d7e1ee;fill-opacity:1"
           id="path25478" />
        <path
           d="m 1098.0001,500.39552 q -0.8023,0.38406 -1.5278,0.59743 -0.7169,0.21337 -1.5277,0.21337 -1.0327,0 -1.8947,-0.29872 -0.862,-0.30725 -1.4765,-0.92175 -0.6231,-0.61451 -0.9644,-1.55333 -0.3414,-0.93883 -0.3414,-2.19344 0,-2.33853 1.2802,-3.66996 1.2887,-1.33142 3.3968,-1.33142 0.8194,0 1.6046,0.23044 0.7937,0.23044 1.4509,0.56329 l 0,1.78377 -0.085,0 q -0.734,-0.57183 -1.5192,-0.87908 -0.7766,-0.30725 -1.5192,-0.30725 -1.3655,0 -2.1593,0.92175 -0.7852,0.91322 -0.7852,2.68846 0,1.72402 0.7682,2.65431 0.7766,0.92176 2.1763,0.92176 0.4865,0 0.9901,-0.12802 0.5035,-0.12802 0.9047,-0.33286 0.3499,-0.17923 0.6571,-0.37553 0.3073,-0.20483 0.4865,-0.34992 l 0.085,0 0,1.7667 z"
           style="font-size:17.47922707px;fill:#d7e1ee;fill-opacity:1"
           id="path25480" />
        <path
           d="m 1108.037,500.99295 -1.6046,0 0,-5.42812 q 0,-0.65718 -0.077,-1.22901 -0.077,-0.58036 -0.2816,-0.90468 -0.2134,-0.35846 -0.6145,-0.52916 -0.4012,-0.17923 -1.0413,-0.17923 -0.6572,0 -1.3741,0.32432 -0.7169,0.32432 -1.3741,0.82787 l 0,7.11801 -1.6045,0 0,-13.28012 1.6045,0 0,4.80509 q 0.7511,-0.62304 1.5534,-0.97297 0.8022,-0.34993 1.6472,-0.34993 1.5448,0 2.3556,0.9303 0.8108,0.93029 0.8108,2.67992 l 0,6.18771 z"
           style="font-size:17.47922707px;fill:#d7e1ee;fill-opacity:1"
           id="path25482" />
        <path
           d="m 1118.5348,500.99295 -1.5961,0 0,-1.01564 q -0.2133,0.14509 -0.5803,0.40967 -0.3585,0.25604 -0.6999,0.40967 -0.4011,0.1963 -0.9217,0.32432 -0.5206,0.13656 -1.2205,0.13656 -1.2887,0 -2.1849,-0.85348 -0.8962,-0.85348 -0.8962,-2.17637 0,-1.08391 0.4609,-1.74963 0.4694,-0.67425 1.3315,-1.05831 0.8705,-0.38407 2.091,-0.52062 1.2204,-0.13656 2.6201,-0.20484 l 0,-0.2475 q 0,-0.54623 -0.1963,-0.90469 -0.1877,-0.35846 -0.5462,-0.5633 -0.3414,-0.1963 -0.8193,-0.26458 -0.478,-0.0683 -0.9986,-0.0683 -0.6316,0 -1.4082,0.17069 -0.7767,0.16216 -1.6046,0.47795 l -0.085,0 0,-1.63014 q 0.4694,-0.12802 1.357,-0.28165 0.8876,-0.15363 1.7496,-0.15363 1.0072,0 1.7497,0.1707 0.751,0.16216 1.2973,0.56329 0.5377,0.3926 0.8193,1.01564 0.2817,0.62304 0.2817,1.5448 l 0,6.46936 z m -1.5961,-2.34706 0,-2.65432 q -0.7339,0.0427 -1.7325,0.12802 -0.99,0.0854 -1.5704,0.24751 -0.6913,0.1963 -1.1181,0.6145 -0.4267,0.40967 -0.4267,1.13513 0,0.81934 0.495,1.23754 0.495,0.40967 1.5107,0.40967 0.8449,0 1.5448,-0.32432 0.6998,-0.33286 1.2972,-0.79373 z"
           style="font-size:17.47922707px;fill:#d7e1ee;fill-opacity:1"
           id="path25484" />
        <path
           d="m 1129.5105,500.99295 -1.6046,0 0,-1.05831 q -0.8108,0.64011 -1.5533,0.9815 -0.7425,0.34139 -1.6387,0.34139 -1.5021,0 -2.3385,-0.91322 -0.8364,-0.92176 -0.8364,-2.69699 l 0,-6.18772 1.6045,0 0,5.42812 q 0,0.72546 0.068,1.24608 0.068,0.51209 0.2902,0.87908 0.2304,0.37553 0.5974,0.54623 0.367,0.17069 1.0669,0.17069 0.623,0 1.357,-0.32432 0.7425,-0.32432 1.3826,-0.82787 l 0,-7.11801 1.6046,0 0,9.53335 z"
           style="font-size:17.47922707px;fill:#d7e1ee;fill-opacity:1"
           id="path25486" />
        <path
           d="m 1140.6484,496.3927 -7.0242,0 q 0,0.87909 0.2646,1.53626 0.2646,0.64865 0.7255,1.06685 0.4438,0.40967 1.0498,0.61451 0.6145,0.20483 1.3484,0.20483 0.973,0 1.9545,-0.38406 0.99,-0.3926 1.4082,-0.76813 l 0.085,0 0,1.74963 q -0.8108,0.34139 -1.6558,0.57183 -0.8449,0.23043 -1.7752,0.23043 -2.3727,0 -3.7041,-1.28021 -1.3314,-1.28875 -1.3314,-3.65289 0,-2.33853 1.2717,-3.71263 1.2802,-1.3741 3.3627,-1.3741 1.9288,0 2.9701,1.1266 1.0498,1.12659 1.0498,3.20054 l 0,0.87054 z m -1.5619,-1.229 q -0.01,-1.26315 -0.6401,-1.95447 -0.6231,-0.69131 -1.9033,-0.69131 -1.2887,0 -2.0568,0.75959 -0.7596,0.7596 -0.8621,1.88619 l 5.4623,0 z"
           style="font-size:17.47922707px;fill:#d7e1ee;fill-opacity:1"
           id="path25488" />
        <path
           d="m 1149.0295,493.20923 -0.085,0 q -0.3585,-0.0854 -0.6999,-0.11948 -0.3328,-0.0427 -0.7937,-0.0427 -0.7425,0 -1.4339,0.33286 -0.6913,0.32432 -1.3314,0.84494 l 0,6.76808 -1.6045,0 0,-9.53335 1.6045,0 0,1.40824 q 0.9559,-0.76813 1.6814,-1.08392 0.734,-0.32432 1.4935,-0.32432 0.4183,0 0.606,0.0256 0.1878,0.0171 0.5633,0.0768 l 0,1.64721 z"
           style="font-size:17.47922707px;fill:#d7e1ee;fill-opacity:1"
           id="path25490" />
        <path
           d="m 1166.0649,497.36567 q 0,0.74253 -0.3499,1.46798 -0.3414,0.72546 -0.9644,1.22901 -0.6828,0.54623 -1.596,0.85348 -0.9047,0.30725 -2.1849,0.30725 -1.3741,0 -2.4751,-0.25604 -1.0925,-0.25605 -2.2276,-0.7596 l 0,-2.11662 0.1195,0 q 0.9644,0.80226 2.2276,1.23754 1.2631,0.43527 2.3726,0.43527 1.5704,0 2.441,-0.5889 0.8791,-0.5889 0.8791,-1.5704 0,-0.84494 -0.4182,-1.24607 -0.4097,-0.40114 -1.2547,-0.62304 -0.6401,-0.1707 -1.3911,-0.28165 -0.7425,-0.11095 -1.579,-0.28165 -1.6898,-0.35846 -2.5092,-1.22047 -0.8108,-0.87055 -0.8108,-2.26172 0,-1.596 1.3485,-2.61164 1.3485,-1.02417 3.4225,-1.02417 1.3399,0 2.458,0.25604 1.118,0.25604 1.98,0.63157 l 0,1.99714 -0.1194,0 q -0.7255,-0.6145 -1.9118,-1.01564 -1.1778,-0.40967 -2.4154,-0.40967 -1.357,0 -2.1849,0.5633 -0.8193,0.56329 -0.8193,1.45091 0,0.79374 0.4097,1.24608 0.4096,0.45234 1.4423,0.69132 0.5463,0.11948 1.5534,0.29018 1.0071,0.17069 1.7069,0.34992 1.4168,0.37553 2.1337,1.13513 0.7169,0.75959 0.7169,2.12516 z"
           style="font-size:17.47922707px;fill:#d7e1ee;fill-opacity:1"
           id="path25492" />
        <path
           d="m 1173.6011,500.9076 q -0.4523,0.11949 -0.99,0.1963 -0.5291,0.0768 -0.9474,0.0768 -1.4594,0 -2.219,-0.7852 -0.7596,-0.7852 -0.7596,-2.51776 l 0,-5.06966 -1.0839,0 0,-1.3485 1.0839,0 0,-2.73966 1.6045,0 0,2.73966 3.3115,0 0,1.3485 -3.3115,0 0,4.3442 q 0,0.75106 0.034,1.1778 0.034,0.4182 0.239,0.7852 0.1877,0.34139 0.512,0.50355 0.3329,0.15363 1.0072,0.15363 0.3926,0 0.8193,-0.11096 0.4267,-0.11948 0.6145,-0.19629 l 0.085,0 0,1.44237 z"
           style="font-size:17.47922707px;fill:#d7e1ee;fill-opacity:1"
           id="path25494" />
        <path
           d="m 1181.4958,493.20923 -0.085,0 q -0.3585,-0.0854 -0.6999,-0.11948 -0.3328,-0.0427 -0.7937,-0.0427 -0.7425,0 -1.4339,0.33286 -0.6913,0.32432 -1.3314,0.84494 l 0,6.76808 -1.6045,0 0,-9.53335 1.6045,0 0,1.40824 q 0.9559,-0.76813 1.6814,-1.08392 0.734,-0.32432 1.4935,-0.32432 0.4183,0 0.606,0.0256 0.1878,0.0171 0.5633,0.0768 l 0,1.64721 z"
           style="font-size:17.47922707px;fill:#d7e1ee;fill-opacity:1"
           id="path25496" />
        <path
           d="m 1190.4317,500.99295 -1.596,0 0,-1.01564 q -0.2133,0.14509 -0.5803,0.40967 -0.3585,0.25604 -0.6999,0.40967 -0.4011,0.1963 -0.9217,0.32432 -0.5207,0.13656 -1.2205,0.13656 -1.2888,0 -2.1849,-0.85348 -0.8962,-0.85348 -0.8962,-2.17637 0,-1.08391 0.4609,-1.74963 0.4694,-0.67425 1.3314,-1.05831 0.8706,-0.38407 2.0911,-0.52062 1.2204,-0.13656 2.6201,-0.20484 l 0,-0.2475 q 0,-0.54623 -0.1963,-0.90469 -0.1877,-0.35846 -0.5462,-0.5633 -0.3414,-0.1963 -0.8193,-0.26458 -0.478,-0.0683 -0.9986,-0.0683 -0.6316,0 -1.4082,0.17069 -0.7767,0.16216 -1.6046,0.47795 l -0.085,0 0,-1.63014 q 0.4694,-0.12802 1.357,-0.28165 0.8876,-0.15363 1.7496,-0.15363 1.0071,0 1.7497,0.1707 0.751,0.16216 1.2972,0.56329 0.5377,0.3926 0.8194,1.01564 0.2816,0.62304 0.2816,1.5448 l 0,6.46936 z m -1.596,-2.34706 0,-2.65432 q -0.734,0.0427 -1.7325,0.12802 -0.9901,0.0854 -1.5704,0.24751 -0.6913,0.1963 -1.1181,0.6145 -0.4267,0.40967 -0.4267,1.13513 0,0.81934 0.495,1.23754 0.495,0.40967 1.5106,0.40967 0.845,0 1.5448,-0.32432 0.6999,-0.33286 1.2973,-0.79373 z"
           style="font-size:17.47922707px;fill:#d7e1ee;fill-opacity:1"
           id="path25498" />
        <path
           d="m 1201.8683,496.88772 q 0,1.82644 -1.1607,3.07252 -1.1522,1.23755 -3.0213,1.23755 -0.3755,0 -0.8706,-0.0683 -0.4864,-0.0598 -0.7937,-0.1707 l 0,-1.40824 0.085,0 q 0.3585,0.20484 0.7767,0.28165 0.4268,0.0768 0.9047,0.0768 0.6316,0 1.101,-0.24751 0.4694,-0.2475 0.751,-0.66571 0.2988,-0.44381 0.4268,-0.9815 0.1365,-0.54622 0.1365,-1.19487 0,-1.41677 -0.9046,-2.13369 -0.8962,-0.72546 -2.5861,-0.72546 l 0,-1.28021 q 1.34,0 1.9972,-0.50356 0.6571,-0.51208 0.6571,-1.61307 0,-0.29872 -0.094,-0.58036 -0.094,-0.28165 -0.35,-0.54623 -0.2304,-0.24751 -0.6059,-0.3926 -0.3756,-0.15363 -0.8962,-0.15363 -0.4865,0 -0.8791,0.12803 -0.3926,0.11948 -0.734,0.45234 -0.3158,0.30725 -0.5121,0.87055 -0.1877,0.56329 -0.1877,1.3741 l 0,9.2773 -1.6046,0 0,-9.21756 q 0,-1.05831 0.3073,-1.83498 0.3072,-0.7852 0.8535,-1.31435 0.5121,-0.49502 1.2717,-0.74253 0.7681,-0.25604 1.5704,-0.25604 1.5618,0 2.5348,0.74252 0.9815,0.74253 0.9815,2.03128 0,0.9559 -0.606,1.71549 -0.606,0.7596 -1.5704,1.03271 l 0,0.0768 q 1.3997,0.31579 2.2105,1.27168 0.8108,0.94736 0.8108,2.38974 z"
           style="font-size:17.47922707px;fill:#d7e1ee;fill-opacity:1"
           id="path25500" />
        <path
           d="m 1212.3064,496.3927 -7.0242,0 q 0,0.87909 0.2646,1.53626 0.2646,0.64865 0.7255,1.06685 0.4438,0.40967 1.0497,0.61451 0.6146,0.20483 1.3485,0.20483 0.973,0 1.9545,-0.38406 0.99,-0.3926 1.4082,-0.76813 l 0.085,0 0,1.74963 q -0.8108,0.34139 -1.6558,0.57183 -0.8449,0.23043 -1.7752,0.23043 -2.3727,0 -3.7041,-1.28021 -1.3314,-1.28875 -1.3314,-3.65289 0,-2.33853 1.2717,-3.71263 1.2802,-1.3741 3.3627,-1.3741 1.9288,0 2.9701,1.1266 1.0498,1.12659 1.0498,3.20054 l 0,0.87054 z m -1.5619,-1.229 q -0.01,-1.26315 -0.6401,-1.95447 -0.6231,-0.69131 -1.9033,-0.69131 -1.2887,0 -2.0569,0.75959 -0.7595,0.7596 -0.862,1.88619 l 5.4623,0 z"
           style="font-size:17.47922707px;fill:#d7e1ee;fill-opacity:1"
           id="path25502" />
      </g>
    </g>
  </g>
</svg>
